<mxfile host="65bd71144e">
    <diagram name="Page-1" id="gEeFwP9GRWCpK_YByme5">
        <mxGraphModel dx="2296" dy="1779" grid="1" gridSize="10" guides="1" tooltips="1" connect="1" arrows="1" fold="1" page="1" pageScale="1" pageWidth="827" pageHeight="1169" math="0" shadow="0">
            <root>
                <mxCell id="0"/>
                <mxCell id="1" parent="0"/>
                <mxCell id="p3QsMWC5dEHLEJqQ33eg-1" value="Utilisateur" style="shape=umlActor;verticalLabelPosition=bottom;verticalAlign=top;html=1;outlineConnect=0;" parent="1" vertex="1">
                    <mxGeometry x="-443" y="-70" width="30" height="60" as="geometry"/>
                </mxCell>
                <mxCell id="p3QsMWC5dEHLEJqQ33eg-4" value="UC01 - S'authentifier" style="ellipse;whiteSpace=wrap;html=1;" parent="1" vertex="1">
                    <mxGeometry x="-190" y="-80" width="120" height="80" as="geometry"/>
                </mxCell>
                <mxCell id="p3QsMWC5dEHLEJqQ33eg-5" value="UC03 - Gérer le calendrier" style="ellipse;whiteSpace=wrap;html=1;" parent="1" vertex="1">
                    <mxGeometry x="-190" y="120" width="120" height="80" as="geometry"/>
                </mxCell>
                <mxCell id="p3QsMWC5dEHLEJqQ33eg-6" value="UC05 - Enregistrer les habitudes d'hygiène dentaire" style="ellipse;whiteSpace=wrap;html=1;" parent="1" vertex="1">
                    <mxGeometry x="-20" y="380" width="120" height="80" as="geometry"/>
                </mxCell>
                <mxCell id="p3QsMWC5dEHLEJqQ33eg-7" value="UC06 - Suivre l'évolution du brossage" style="ellipse;whiteSpace=wrap;html=1;" parent="1" vertex="1">
                    <mxGeometry x="180" y="-90" width="120" height="80" as="geometry"/>
                </mxCell>
                <mxCell id="p3QsMWC5dEHLEJqQ33eg-8" value="UC02 - Gérer le profil" style="ellipse;whiteSpace=wrap;html=1;" parent="1" vertex="1">
                    <mxGeometry x="-190" y="-240" width="120" height="80" as="geometry"/>
                </mxCell>
                <mxCell id="p3QsMWC5dEHLEJqQ33eg-10" value="UC07 - Recevoir des conseils/tips" style="ellipse;whiteSpace=wrap;html=1;" parent="1" vertex="1">
                    <mxGeometry x="210" y="120" width="120" height="80" as="geometry"/>
                </mxCell>
                <mxCell id="p3QsMWC5dEHLEJqQ33eg-11" value="UC08 - Consulter des articles" style="ellipse;whiteSpace=wrap;html=1;" parent="1" vertex="1">
                    <mxGeometry x="-400" y="120" width="120" height="80" as="geometry"/>
                </mxCell>
                <mxCell id="p3QsMWC5dEHLEJqQ33eg-14" value="" style="endArrow=none;html=1;rounded=0;" parent="1" source="p3QsMWC5dEHLEJqQ33eg-1" target="p3QsMWC5dEHLEJqQ33eg-4" edge="1">
                    <mxGeometry width="50" height="50" relative="1" as="geometry">
                        <mxPoint x="60" y="280" as="sourcePoint"/>
                        <mxPoint x="110" y="230" as="targetPoint"/>
                    </mxGeometry>
                </mxCell>
                <mxCell id="p3QsMWC5dEHLEJqQ33eg-16" value="" style="endArrow=none;html=1;rounded=0;" parent="1" source="p3QsMWC5dEHLEJqQ33eg-1" target="p3QsMWC5dEHLEJqQ33eg-5" edge="1">
                    <mxGeometry width="50" height="50" relative="1" as="geometry">
                        <mxPoint x="80" y="114" as="sourcePoint"/>
                        <mxPoint x="255" y="164" as="targetPoint"/>
                    </mxGeometry>
                </mxCell>
                <mxCell id="p3QsMWC5dEHLEJqQ33eg-19" value="" style="endArrow=none;html=1;rounded=0;" parent="1" source="p3QsMWC5dEHLEJqQ33eg-1" target="p3QsMWC5dEHLEJqQ33eg-11" edge="1">
                    <mxGeometry width="50" height="50" relative="1" as="geometry">
                        <mxPoint x="120" y="132" as="sourcePoint"/>
                        <mxPoint x="431" y="172" as="targetPoint"/>
                    </mxGeometry>
                </mxCell>
                <mxCell id="p3QsMWC5dEHLEJqQ33eg-21" value="UC04 - Gérer le journal de bord" style="ellipse;whiteSpace=wrap;html=1;" parent="1" vertex="1">
                    <mxGeometry x="-20" y="120" width="120" height="80" as="geometry"/>
                </mxCell>
                <mxCell id="p3QsMWC5dEHLEJqQ33eg-22" value="" style="endArrow=none;html=1;rounded=0;" parent="1" source="p3QsMWC5dEHLEJqQ33eg-21" target="p3QsMWC5dEHLEJqQ33eg-1" edge="1">
                    <mxGeometry width="50" height="50" relative="1" as="geometry">
                        <mxPoint x="230" y="310" as="sourcePoint"/>
                        <mxPoint x="280" y="260" as="targetPoint"/>
                    </mxGeometry>
                </mxCell>
                <mxCell id="p3QsMWC5dEHLEJqQ33eg-23" value="&amp;lt;&amp;lt;extend&amp;gt;&amp;gt;" style="html=1;verticalAlign=bottom;labelBackgroundColor=none;endArrow=open;endFill=0;dashed=1;rounded=0;" parent="1" source="p3QsMWC5dEHLEJqQ33eg-6" target="p3QsMWC5dEHLEJqQ33eg-21" edge="1">
                    <mxGeometry width="160" relative="1" as="geometry">
                        <mxPoint x="520" y="280" as="sourcePoint"/>
                        <mxPoint x="360" y="280" as="targetPoint"/>
                    </mxGeometry>
                </mxCell>
                <mxCell id="p3QsMWC5dEHLEJqQ33eg-25" value="&amp;lt;&amp;lt;extend&amp;gt;&amp;gt;" style="html=1;verticalAlign=bottom;labelBackgroundColor=none;endArrow=open;endFill=0;dashed=1;rounded=0;" parent="1" source="p3QsMWC5dEHLEJqQ33eg-7" target="p3QsMWC5dEHLEJqQ33eg-21" edge="1">
                    <mxGeometry width="160" relative="1" as="geometry">
                        <mxPoint x="-116" y="404" as="sourcePoint"/>
                        <mxPoint x="-214" y="266" as="targetPoint"/>
                    </mxGeometry>
                </mxCell>
                <mxCell id="p3QsMWC5dEHLEJqQ33eg-26" value="&amp;lt;&amp;lt;extend&amp;gt;&amp;gt;" style="html=1;verticalAlign=bottom;labelBackgroundColor=none;endArrow=open;endFill=0;dashed=1;rounded=0;" parent="1" source="p3QsMWC5dEHLEJqQ33eg-10" target="p3QsMWC5dEHLEJqQ33eg-21" edge="1">
                    <mxGeometry width="160" relative="1" as="geometry">
                        <mxPoint x="-60" y="308" as="sourcePoint"/>
                        <mxPoint x="-190" y="252" as="targetPoint"/>
                    </mxGeometry>
                </mxCell>
                <mxCell id="p3QsMWC5dEHLEJqQ33eg-29" value="&amp;lt;&amp;lt;include&amp;gt;&amp;gt;" style="html=1;verticalAlign=bottom;labelBackgroundColor=none;endArrow=open;endFill=0;dashed=1;rounded=0;" parent="1" source="p3QsMWC5dEHLEJqQ33eg-8" target="p3QsMWC5dEHLEJqQ33eg-4" edge="1">
                    <mxGeometry width="160" relative="1" as="geometry">
                        <mxPoint x="-30" y="-110" as="sourcePoint"/>
                        <mxPoint x="130" y="-110" as="targetPoint"/>
                    </mxGeometry>
                </mxCell>
                <mxCell id="p3QsMWC5dEHLEJqQ33eg-30" value="&amp;lt;&amp;lt;include&amp;gt;&amp;gt;" style="html=1;verticalAlign=bottom;labelBackgroundColor=none;endArrow=open;endFill=0;dashed=1;rounded=0;" parent="1" source="p3QsMWC5dEHLEJqQ33eg-21" target="p3QsMWC5dEHLEJqQ33eg-4" edge="1">
                    <mxGeometry width="160" relative="1" as="geometry">
                        <mxPoint x="-150" y="-30" as="sourcePoint"/>
                        <mxPoint x="-150" y="-120" as="targetPoint"/>
                    </mxGeometry>
                </mxCell>
                <mxCell id="p3QsMWC5dEHLEJqQ33eg-31" value="&amp;lt;&amp;lt;include&amp;gt;&amp;gt;" style="html=1;verticalAlign=bottom;labelBackgroundColor=none;endArrow=open;endFill=0;dashed=1;rounded=0;" parent="1" source="p3QsMWC5dEHLEJqQ33eg-5" target="p3QsMWC5dEHLEJqQ33eg-4" edge="1">
                    <mxGeometry width="160" relative="1" as="geometry">
                        <mxPoint x="-140" y="-20" as="sourcePoint"/>
                        <mxPoint x="-140" y="-110" as="targetPoint"/>
                    </mxGeometry>
                </mxCell>
                <mxCell id="p3QsMWC5dEHLEJqQ33eg-32" value="&amp;lt;&amp;lt;include&amp;gt;&amp;gt;" style="html=1;verticalAlign=bottom;labelBackgroundColor=none;endArrow=open;endFill=0;dashed=1;rounded=0;" parent="1" source="p3QsMWC5dEHLEJqQ33eg-11" target="p3QsMWC5dEHLEJqQ33eg-4" edge="1">
                    <mxGeometry width="160" relative="1" as="geometry">
                        <mxPoint x="-130" y="-10" as="sourcePoint"/>
                        <mxPoint x="-130" y="-100" as="targetPoint"/>
                    </mxGeometry>
                </mxCell>
                <mxCell id="p3QsMWC5dEHLEJqQ33eg-38" value="&amp;lt;&amp;lt;include&amp;gt;&amp;gt;" style="html=1;verticalAlign=bottom;labelBackgroundColor=none;endArrow=open;endFill=0;dashed=1;rounded=0;" parent="1" source="p3QsMWC5dEHLEJqQ33eg-10" target="p3QsMWC5dEHLEJqQ33eg-6" edge="1">
                    <mxGeometry width="160" relative="1" as="geometry">
                        <mxPoint x="242.81999999999545" y="324.3" as="sourcePoint"/>
                        <mxPoint x="219.99865731475194" y="-4.304689378653802" as="targetPoint"/>
                        <Array as="points"/>
                    </mxGeometry>
                </mxCell>
                <mxCell id="4" value="" style="endArrow=none;html=1;rounded=0;" edge="1" parent="1" source="p3QsMWC5dEHLEJqQ33eg-5" target="p3QsMWC5dEHLEJqQ33eg-6">
                    <mxGeometry width="50" height="50" relative="1" as="geometry">
                        <mxPoint x="-403" y="-19.937679702850573" as="sourcePoint"/>
                        <mxPoint x="-162.22292640190972" y="141.58072261409916" as="targetPoint"/>
                    </mxGeometry>
                </mxCell>
            </root>
        </mxGraphModel>
    </diagram>
</mxfile>